<?xml version="1.0" encoding="UTF-8"?>
<svg version="1.1" xmlns="http://www.w3.org/2000/svg" width="126" height="146">
<path d="M0 0 C41.58 0 83.16 0 126 0 C126 48.18 126 96.36 126 146 C84.42 146 42.84 146 0 146 C0 97.82 0 49.64 0 0 Z " fill="#FDFDFD" transform="translate(0,0)"/>
<path d="M0 0 C9.2023922 5.71250193 18.10420701 11.82564725 27 18 C29.04152103 19.41687653 31.08318007 20.83355424 33.125 22.25 C34.15753906 22.96671875 35.19007812 23.6834375 36.25390625 24.421875 C39.24989411 26.4915549 42.26220664 28.53645405 45.27734375 30.578125 C55.01791722 37.17831767 64.71254801 43.76989497 74 51 C73.01 49.68 72.02 48.36 71 47 C75.32792073 42.20837348 81.35731102 39.50119963 87.625 38.3125 C92.46692582 39.29881822 95.27447364 41.88013577 99 45 C100.49464595 46.1114034 101.99447289 47.21588149 103.5 48.3125 C104.6865261 49.18185855 105.86062023 50.06970854 107 51 C107 51.33 107 51.66 107 52 C106.33097656 52.11214844 105.66195312 52.22429687 104.97265625 52.33984375 C90.19492438 55.37473365 77.55822156 63.6028057 66 73 C64.63488281 74.07894531 64.63488281 74.07894531 63.2421875 75.1796875 C56.75984037 80.36925885 50.62778544 85.90604616 44.55126953 91.55761719 C41.87474131 94.04627453 39.18841014 96.52419267 36.5 99 C35.5409375 99.886875 34.581875 100.77375 33.59375 101.6875 C31.46024648 103.58965977 29.32051537 105.33623426 27 107 C28.38039459 102.31804308 30.38778258 98.29540468 32.875 94.125 C35.11966398 90.32626123 37.24329977 86.58184056 38.9375 82.5 C41.17559737 77.75809507 45.57329968 75.497113 50 73 C48.80375 73.350625 47.6075 73.70125 46.375 74.0625 C39.23446372 76.15541581 33.18273805 73.01973212 26.75 70.125 C25.9353125 69.77308594 25.120625 69.42117187 24.28125 69.05859375 C23.50265625 68.71183594 22.7240625 68.36507812 21.921875 68.0078125 C21.21643555 67.69473145 20.51099609 67.38165039 19.78417969 67.05908203 C17.33255454 65.603807 16.25787651 63.77522135 15.3671875 61.09765625 C15.12355469 60.09025391 15.12355469 60.09025391 14.875 59.0625 C14.70742188 58.39347656 14.53984375 57.72445312 14.3671875 57.03515625 C14 55 14 55 14 51 C14.60328125 51.144375 15.2065625 51.28875 15.828125 51.4375 C17.02695312 51.7159375 17.02695312 51.7159375 18.25 52 C19.43335938 52.2784375 19.43335938 52.2784375 20.640625 52.5625 C23.25556002 53.12154828 23.25556002 53.12154828 27 53 C25.515 52.071875 25.515 52.071875 24 51.125 C23.01 50.42375 22.02 49.7225 21 49 C21 48.34 21 47.68 21 47 C20.484375 46.773125 19.96875 46.54625 19.4375 46.3125 C18.633125 45.879375 17.82875 45.44625 17 45 C15.824375 44.401875 14.64875 43.80375 13.4375 43.1875 C8.77086669 39.90283106 8.39719797 34.9932657 7.41015625 29.66796875 C7.27480469 28.78753906 7.13945312 27.90710938 7 27 C10.61221644 28.14887113 14.00775797 29.38332309 17.375 31.125 C18.06335938 31.47820313 18.75171875 31.83140625 19.4609375 32.1953125 C19.96882813 32.46085937 20.47671875 32.72640625 21 33 C19.48016736 31.62389399 17.95907486 30.24917938 16.4375 28.875 C15.59058594 28.10929687 14.74367188 27.34359375 13.87109375 26.5546875 C11.23983452 24.12709707 11.23983452 24.12709707 9.18383789 22.68603516 C3.86866781 18.69601707 2.61623734 15.07078838 1.5625 8.625 C1.40330078 7.79355469 1.24410156 6.96210938 1.08007812 6.10546875 C0.69497196 4.07490899 0.3439288 2.03793834 0 0 Z " fill="#040404" transform="translate(8,19)"/>
<path d="M0 0 C2.99943905 1.34572887 5.08076179 2.83537101 7.39160156 5.16455078 C8.35214447 6.12532028 8.35214447 6.12532028 9.33209229 7.10549927 C10.01140808 7.79513763 10.69072388 8.484776 11.390625 9.1953125 C12.09523865 9.90275604 12.79985229 10.61019958 13.52581787 11.33908081 C15.7719539 13.59639862 18.01103009 15.86057633 20.25 18.125 C21.77297717 19.65800953 23.29640939 21.19056715 24.8203125 22.72265625 C28.55216815 26.47654573 32.27825351 30.23608914 36 34 C34.16951644 38.14037949 32.01412451 39.83237277 28 42 C24.69142698 41.63379804 22.79249433 40.27657252 20.28515625 38.1640625 C19.59873047 37.59429687 18.91230469 37.02453125 18.20507812 36.4375 C17.49802734 35.839375 16.79097656 35.24125 16.0625 34.625 C14.66006555 33.44752067 13.25517682 32.27295731 11.84765625 31.1015625 C11.18548096 30.54388184 10.52330566 29.98620117 9.84106445 29.41162109 C7.9337434 27.83698106 7.9337434 27.83698106 5.109375 26.703125 C1.49748587 23.78685896 1.68100755 19.54456439 1.1875 15.125 C1.06697266 14.22652344 0.94644531 13.32804687 0.82226562 12.40234375 C0.28364554 8.23496317 -0.05734558 4.20627462 0 0 Z " fill="#060606" transform="translate(49,21)"/>
<path d="M0 0 C1.5625 1.6875 1.5625 1.6875 3 4 C2.83620439 7.41146711 2.20973844 8.76967612 -0.109375 11.31640625 C-0.98078125 12.05761719 -1.8521875 12.79882812 -2.75 13.5625 C-4.04164062 14.67818359 -4.04164062 14.67818359 -5.359375 15.81640625 C-7.88526129 17.90511991 -10.43209713 19.96322812 -13 22 C-11.62291132 17.49378407 -9.83704819 13.4709574 -7.625 9.3125 C-7.03976563 8.19488281 -6.45453125 7.07726562 -5.8515625 5.92578125 C-4.10197937 3.16114462 -2.74395934 1.71044161 0 0 Z " fill="#0D0D0D" transform="translate(48,104)"/>
<path d="M0 0 C1.12678162 0.83092276 2.25126021 1.66496806 3.375 2.5 C4.09945312 3.03753906 4.82390625 3.57507812 5.5703125 4.12890625 C7.28523531 5.44956224 8.96492574 6.81658641 10.6171875 8.21484375 C11.48601562 8.94832031 12.35484375 9.68179688 13.25 10.4375 C14.05953125 11.13746094 14.8690625 11.83742188 15.703125 12.55859375 C17.85172387 14.23382636 17.85172387 14.23382636 20.125 13.7890625 C21.053125 13.39847656 21.053125 13.39847656 22 13 C22.9075 12.649375 23.815 12.29875 24.75 11.9375 C25.4925 11.628125 26.235 11.31875 27 11 C27.33 12.32 27.66 13.64 28 15 C26.68 15.99 25.36 16.98 24 18 C25.32 19.65 26.64 21.3 28 23 C24.91737505 21.55116188 22.19737266 19.83743917 19.41015625 17.8828125 C18.54326172 17.27566406 17.67636719 16.66851562 16.78320312 16.04296875 C15.88537109 15.41003906 14.98753906 14.77710938 14.0625 14.125 C13.16853516 13.49980469 12.27457031 12.87460937 11.35351562 12.23046875 C7.13488217 9.26771652 2.96797156 6.29697846 -1 3 C-0.67 2.01 -0.34 1.02 0 0 Z " fill="#DCDCDC" transform="translate(56,48)"/>
<path d="M0 0 C-4.95 2.475 -4.95 2.475 -10 5 C-10 4.34 -10 3.68 -10 3 C-10.66 2.67 -11.32 2.34 -12 2 C-10.75579353 1.4654744 -9.50429064 0.94791389 -8.25 0.4375 C-7.55390625 0.14746094 -6.8578125 -0.14257812 -6.140625 -0.44140625 C-4 -1 -4 -1 0 0 Z " fill="#D0D0D0" transform="translate(60,92)"/>
<path d="M0 0 C0.0825 0.556875 0.165 1.11375 0.25 1.6875 C1.22610013 4.69714206 2.95188814 6.62154752 5 9 C2.50638429 7.79618552 0.31856917 6.54571278 -2 5 C-1.125 1.125 -1.125 1.125 0 0 Z " fill="#C7C7C7" transform="translate(79,62)"/>
</svg>
